<svg id="Layer_1" data-name="Layer 1" xmlns="http://www.w3.org/000/svg" viewBox="0 0 167.78 30.06"><defs><style>.cls-1{fill:#73b45;}.cls-{fill:#e8ae30;}.cls-3{fill:#fff1d;}</style></defs><path class="cls-1" d="M108.41,306.31V77.56h6.8a0.61,0.61,0,0,1,5.05.47,8.43,8.43,0,0,1,3.18,1.55,7.84,7.84,0,0,1,.9,.85,8.19,8.19,0,0,1,.81,3.58,8.8,8.8,0,0,1-1.7,4.76,8.5,8.5,0,0,1-3.65,3.19l8,1.35h-7.19l-7-11.8h-.9v11.8Zm7.16-3.5h-1v8h1.33a5.5,5.5,0,0,0,3.65-1.06,3.69,3.69,0,0,0,1.5-3,3.47,3.47,0,0,0-1.-3A6.61,6.61,0,0,0,115.57,8.79Z" transform="translate(-76.47 -76.41)"/><path class="cls-1" d="M141.38,87.59h5.67v17.87l-5.6.85v-3.49a9.78,9.78,0,0,1-.79,.64,6.,6.,0,0,1-3.19.85,4.86,4.86,0,0,1-4-1.6,7.4,7.4,0,0,1-1.36-4.76V87.59h5.7v10.59a3.6,3.6,0,0,0,.53,.13,1.81,1.81,0,0,0,1.57.73,.67,.67,0,0,0,.9-1.1,5.3,5.3,0,0,0,.8-3.17Z" transform="translate(-76.47 -76.41)"/><path class="cls-1" d="M167.81,306.31h-5.7V96.08a3.58,3.58,0,0,0-.53-.1,1.78,1.78,0,0,0-1.5-.74,.55,.55,0,0,0-.,1.11,5.39,5.39,0,0,0-.79,3.16v8.8h-5.7V88.45h5.3v3a10.57,10.57,0,0,1,.81-.66,5.85,5.85,0,0,1,3-.83,5.11,5.11,0,0,1,3,.81,6.18,6.18,0,0,1,,.6,8.8,8.8,0,0,1,.63-.56,5.94,5.94,0,0,1,3.11-.85,4.8,4.8,0,0,1,4,1.67,8.43,8.43,0,0,1,1.3,5.19v11.5h-5.7V96.08a3.5,3.5,0,0,0-.54-.1,1.77,1.77,0,0,0-1.5-.74,.53,.53,0,0,0-.,1.11,5.46,5.46,0,0,0-.79,3.16Z" transform="translate(-76.47 -76.41)"/><path class="cls-" d="M18.7,304.7v-4.91a.17,.17,0,0,0,3.37,,5.57,5.57,0,0,0,..5,.3,.3,0,0,0,1.44-.4,1.37,1.37,0,0,0,.54-1.1,1.33,1.33,0,0,0-.38-1,3.57,3.57,0,0,0-1.31-.76l-.11-.81a6.85,6.85,0,0,1-3.15-.17,5.3,5.3,0,0,1-1.08-3.3,5.71,5.71,0,0,1,1.73-4.34,6.44,6.44,0,0,1,4.61-1.63,10.77,10.77,0,0,1,.8.4,,,0,0,1,3.3,1.6l-.71,4.35a8.45,8.45,0,0,0-.39-1.59,6,6,0,0,0-.4-.58,.11,.11,0,0,0-1.36.43,1.33,1.33,0,0,0-.53,1.08,1.4,1.4,0,0,0,.3.88,3.55,3.55,0,0,0,1.34.71l,.77a7.61,7.61,0,0,1,3.31,.16,5.4,5.4,0,0,1,1,3.31,6.16,6.16,0,0,1-1.78,4.67,6.7,6.7,0,0,1-4.87,1.7,10.9,10.9,0,0,1-.94-.41A1.33,1.33,0,0,1,18.7,304.7Z" transform="translate(-76.47 -76.41)"/><path class="cls-" d="M18.7,304.8v-4.9a1.59,1.59,0,0,0,3.37,,5.57,5.57,0,0,0,..5,.6,.6,0,0,0,1.44-.43,1.34,1.34,0,0,0,.54-1.1,1.37,1.37,0,0,0-.38-1,3.7,3.7,0,0,0-1.31-.75l-.11-.81a6.85,6.85,0,0,1-3.15-.17,5.8,5.8,0,0,1-1.08-3.31,5.7,5.7,0,0,1,1.73-4.33,6.44,6.44,0,0,1,4.61-1.63,10.77,10.77,0,0,1,.8.4,0.9,0.9,0,0,1,3.3,1.6L194,9.9a8.63,8.63,0,0,0-.39-1.58,5.88,5.88,0,0,0-.4-.58,.05,.05,0,0,0-1.36.43,1.3,1.3,0,0,0-.53,1.08,1.5,1.5,0,0,0,.3.88,3.7,3.7,0,0,0,1.34.71l,.77a7.43,7.43,0,0,1,3.31,.16,5.4,5.4,0,0,1,1,3.31,6.16,6.16,0,0,1-1.78,4.67,6.75,6.75,0,0,1-4.87,1.7,10.9,10.9,0,0,1-.94-.41A1.33,1.33,0,0,1,18.7,304.8Z" transform="translate(-76.47 -76.41)"/><path class="cls-" d="M04.55,306.31h-5.77V88.45l5.77-.86Z" transform="translate(-76.47 -76.41)"/><path class="cls-" d="M14,306.31h-5.5V78l5.5-.86V95.8l5-7.35h6l-5.7,7.63,7,10.3h-6.3l-6.05-9.5Z" transform="translate(-76.47 -76.41)"/><path class="cls-" d="M44,87.59v11.17c0,1.4,0,.57.07,3.53s.1,1.76.,.43l-5.3,1.59-.51-1.7a8.16,8.16,0,0,1-.11,1.8,5.6,5.6,0,0,1-.16.4,6.54,6.54,0,0,1-5.3-.75,10.81,10.81,0,0,1-.16-6.87,10.5,10.5,0,0,1,.4-7.13,7.74,7.74,0,0,1,6.1-.8A6.8,6.8,0,0,1,37,87a1.64,1.64,0,0,1,,.79Zm-5.7,4.54a4,4,0,0,0-1-.45,.94,.94,0,0,0-.9-.14,3.3,3.3,0,0,0-.73,1.48,6.78,6.78,0,0,0-.14,7.1,.83,.83,0,0,0,.38,1.4,.39,.39,0,0,0,1.16-.33,5.19,5.19,0,0,0,1.3-1Z" transform="translate(-76.47 -76.41)"/><path class="cls-" d="M94.88,308.15" transform="translate(-76.47 -76.41)"/><path class="cls-1" d="M77.67,95.86l.09-.09s.07,0,0-.1l-.46-.5c-.11-.14,0-.09,0-.1l0-.05.08-.1.31-.4.6-.78c.4-.51.87-1,1.3-1.49l.78-.84c1.86-1.9,3.66-3.85,5.55-5.71h0l.77-.81.7.83c1.15,1.37,.31,.7,3.43,4.11l3.4,4.14c.7,.76,4.55,5.51,6.66,8.4-.63-.43-5.09-5-7.57-7.58l-3.7-3.86c-1.5-1.7-.46-.58-3.69-3.88l1.47,0h0c-1.76,-3.63,3.87-5.43,5.8l-.7,.9c-.46.48-.93.95-1.43,1.39-.4.3-.49.45-.74.66l-.38.33-.1.08,0,0s0,.08-.1,0l-.54-.43c-.15-.11-.09,0-.1,0Z" transform="translate(-76.47 -76.41)"/><path class="cls-1" d="M91.31,76.41a14.84,14.84,0,0,0-14.84,14.84c0,.13,0,.6,0,.38a14.81,14.81,0,0,0,14.64,14.45h.19a14.84,14.84,0,1,0,0-9.68Zm13.8,18.37a14.,14.,0,0,1-.56,1.93,13.86,13.86,0,0,1-13,8.86,13.5,13.5,0,1,1,13.84-14.1c0,.3,0,.47,0,.7a1.5,1.5,0,0,1-.07,1.38C105.7,93.9,105.,94.34,105.11,94.78Zm-1.5-11.86" transform="translate(-76.47 -76.41)"/><path class="cls-" d="M104.6,96.58a13.86,13.86,0,0,1-1.9,9h-.19a13.71,13.71,0,0,1-13.91-13.51c0-.1,0-.3,0-.35a13.93,13.93,0,0,1,7.8-.5,13.33,13.33,0,1,0-13.3,13.61A13.33,13.33,0,0,0,104.6,96.58Z" transform="translate(-76.47 -76.41)"/><rect class="cls-" x="1.53" y="13.31" width=".79" height=".64"/><rect class="cls-1" x="8.74" y="13.31" width=".79" height=".64"/><rect class="cls-1" x="1.53" y="16.44" width=".79" height=".64"/><rect class="cls-" x="8.74" y="16.44" width=".79" height=".64"/><path class="cls-3" d="M80.38,78.54" transform="translate(-76.47 -76.41)"/><polygon class="cls-1" points="13.68 5.44 6.9 .19 13.35 5.7 13.68 5.44"/><polygon class="cls-1" points="1.99 5.95 6.4 .7 1.66 6.1 1.99 5.95"/><path class="cls-1" d="M199.,84.59v0s0,0,0,0l-.09-.09s0,0,0,0l.05-.07.1-.14.3-.7.5-.51,1-1h0l.14-.14.1.15c.81,1,1.65,,.4,3-.93-.89-1.79-1.83-.69-.75h.7l-1,1.05-.48.5-.6.5-.13.1-.07.06s0,0-.05,0l-.1-.08h0Z" transform="translate(-76.47 -76.41)"/><path class="cls-1" d="M01.67,81.1a.66,.66,0,0,0-.67,.66v.07a.66,.66,0,0,0,.63,.59h0a.67,.67,0,0,0,0-5.33Zm.47,3.3a.19,.19,0,0,1-.1.34,.48,.48,0,0,1-.34,1.59,.43,.43,0,1,1,.49-.55v.13a.09,.09,0,0,1,0,.5A,,0,0,1,04.14,84.4Zm-.7-.13" transform="translate(-76.47 -76.41)"/><path class="cls-" d="M04.05,84.7a.49,.49,0,0,1-.3,1.61h0a.46,.46,0,0,1-.5-.4v-.06a.5,.5,0,0,1,5-.05,.39,.39,0,1,0-.39,.44A.4,.4,0,0,0,04.05,84.7Z" transform="translate(-76.47 -76.41)"/><rect class="cls-" x="14.78" y="7.08" width="0.5" height="0.47"/><rect class="cls-1" x="14.1" y="7.08" width="0.5" height="0.47"/><rect class="cls-1" x="14.78" y="7.64" width="0.5" height="0.47"/><rect class="cls-" x="14.1" y="7.64" width="0.5" height="0.47"/><path class="cls-3" d="M199.7,81.48" transform="translate(-76.47 -76.41)"/><polygon class="cls-1" points="14.99 5.67 17.36 8.67 14.93 5.71 14.99 5.67"/><polygon class="cls-1" points="14.86 5.76 17.4 8.76 14.8 5.8 14.86 5.76"/></svg>