<svg id="Layer_1" data-name="Layer 1" xmlns="http://www.w3.org/2000/svg" viewBox="0 0 167.78 30.06"><defs><style>.cls-1{fill:#73b452;}.cls-2{fill:#e8ae30;}.cls-3{fill:#fff12d;}</style></defs><path class="cls-1" d="M108.41,306.31V277.56h6.8a20.61,20.61,0,0,1,5.05.47,8.43,8.43,0,0,1,3.18,1.55,7.84,7.84,0,0,1,2.29,2.85,8.19,8.19,0,0,1,.81,3.58,8.82,8.82,0,0,1-1.27,4.76,8.52,8.52,0,0,1-3.65,3.19l8,12.35h-7.19l-7-11.28h-.9v11.28Zm7.16-23.52h-1v8h1.33a5.52,5.52,0,0,0,3.65-1.06,3.69,3.69,0,0,0,1.25-3,3.47,3.47,0,0,0-1.22-3A6.61,6.61,0,0,0,115.57,282.79Z" transform="translate(-76.47 -276.41)"/><path class="cls-1" d="M141.38,287.59h5.67v17.87l-5.26.85v-3.49a9.78,9.78,0,0,1-2.79,2.64,6.2,6.2,0,0,1-3.19.85,4.86,4.86,0,0,1-4-1.62,7.24,7.24,0,0,1-1.36-4.76V287.59h5.7v10.59a3.6,3.6,0,0,0,.53,2.13,1.81,1.81,0,0,0,1.57.73,2.67,2.67,0,0,0,2.29-1.1,5.3,5.3,0,0,0,.8-3.17Z" transform="translate(-76.47 -276.41)"/><path class="cls-1" d="M167.81,306.31h-5.7V296.08a3.58,3.58,0,0,0-.53-2.1,1.78,1.78,0,0,0-1.52-.74,2.55,2.55,0,0,0-2.2,1.11,5.39,5.39,0,0,0-.79,3.16v8.8h-5.7V288.45h5.3v3a10.57,10.57,0,0,1,2.81-2.66,5.85,5.85,0,0,1,3-.83,5.11,5.11,0,0,1,3,.81,6.18,6.18,0,0,1,2,2.6,8.82,8.82,0,0,1,2.63-2.56,5.94,5.94,0,0,1,3.11-.85,4.8,4.8,0,0,1,4,1.67,8.43,8.43,0,0,1,1.3,5.19v11.5h-5.7V296.08a3.5,3.5,0,0,0-.54-2.1,1.77,1.77,0,0,0-1.52-.74,2.53,2.53,0,0,0-2.2,1.11,5.46,5.46,0,0,0-.79,3.16Z" transform="translate(-76.47 -276.41)"/><path class="cls-2" d="M182.7,304.72v-4.91a22.17,22.17,0,0,0,3.37,2,5.57,5.57,0,0,0,2.22.52,2.32,2.32,0,0,0,1.44-.42,1.37,1.37,0,0,0,.54-1.12,1.33,1.33,0,0,0-.38-1,3.57,3.57,0,0,0-1.31-.76l-2.11-.81a6.85,6.85,0,0,1-3.15-2.17,5.23,5.23,0,0,1-1.08-3.3,5.71,5.71,0,0,1,1.73-4.34,6.44,6.44,0,0,1,4.61-1.63,10.77,10.77,0,0,1,2.82.4,22,22,0,0,1,3.3,1.26l-.71,4.35a8.45,8.45,0,0,0-2.39-1.59,6,6,0,0,0-2.42-.58,2.11,2.11,0,0,0-1.36.43,1.33,1.33,0,0,0-.53,1.08,1.24,1.24,0,0,0,.3.88,3.55,3.55,0,0,0,1.34.71l2,.77a7.61,7.61,0,0,1,3.31,2.16,5.24,5.24,0,0,1,1,3.31,6.16,6.16,0,0,1-1.78,4.67,6.7,6.7,0,0,1-4.87,1.72,10.92,10.92,0,0,1-2.94-.41A12.33,12.33,0,0,1,182.7,304.72Z" transform="translate(-76.47 -276.41)"/><path class="cls-2" d="M182.7,304.8v-4.92a21.59,21.59,0,0,0,3.37,2,5.57,5.57,0,0,0,2.22.52,2.26,2.26,0,0,0,1.44-.43,1.34,1.34,0,0,0,.54-1.12,1.37,1.37,0,0,0-.38-1,3.72,3.72,0,0,0-1.31-.75l-2.11-.81a6.85,6.85,0,0,1-3.15-2.17,5.28,5.28,0,0,1-1.08-3.31,5.7,5.7,0,0,1,1.73-4.33,6.44,6.44,0,0,1,4.61-1.63,10.77,10.77,0,0,1,2.82.4,20.92,20.92,0,0,1,3.3,1.26L194,292.9a8.63,8.63,0,0,0-2.39-1.58,5.88,5.88,0,0,0-2.42-.58,2.05,2.05,0,0,0-1.36.43,1.3,1.3,0,0,0-.53,1.08,1.25,1.25,0,0,0,.3.88,3.7,3.7,0,0,0,1.34.71l2,.77a7.43,7.43,0,0,1,3.31,2.16,5.24,5.24,0,0,1,1,3.31,6.16,6.16,0,0,1-1.78,4.67,6.75,6.75,0,0,1-4.87,1.72,10.92,10.92,0,0,1-2.94-.41A12.33,12.33,0,0,1,182.7,304.8Z" transform="translate(-76.47 -276.41)"/><path class="cls-2" d="M204.55,306.31h-5.77V288.45l5.77-.86Z" transform="translate(-76.47 -276.41)"/><path class="cls-2" d="M214,306.31h-5.52V278l5.52-.86V295.8l5-7.35h6l-5.7,7.63,7,10.23h-6.3l-6.05-9.5Z" transform="translate(-76.47 -276.41)"/><path class="cls-2" d="M244,287.59v11.17c0,1.4,0,2.57.07,3.53s.12,1.76.22,2.43l-5.3,1.59-.51-1.7a8.16,8.16,0,0,1-2.11,1.28,5.62,5.62,0,0,1-2.16.42,6.54,6.54,0,0,1-5.32-2.75,10.81,10.81,0,0,1-2.16-6.87,10.5,10.5,0,0,1,2.42-7.13,7.74,7.74,0,0,1,6.12-2.82A6.8,6.8,0,0,1,237,287a12.64,12.64,0,0,1,2,.79Zm-5.72,4.54a4,4,0,0,0-1-.45,2.94,2.94,0,0,0-.92-.14,3.3,3.3,0,0,0-2.73,1.48,6.78,6.78,0,0,0-.14,7.21,2.83,2.83,0,0,0,2.38,1.4,2.39,2.39,0,0,0,1.16-.33,5.19,5.19,0,0,0,1.23-1Z" transform="translate(-76.47 -276.41)"/><path class="cls-2" d="M94.88,308.15" transform="translate(-76.47 -276.41)"/><path class="cls-1" d="M77.67,295.86l.09-.09s.07,0,0-.12l-.46-.52c-.11-.14,0-.09,0-.12l0-.05.08-.1.31-.4.62-.78c.42-.51.87-1,1.32-1.49l2.78-2.84c1.86-1.9,3.66-3.85,5.55-5.71h0l.77-.81.7.83c1.15,1.37,2.31,2.72,3.43,4.11l3.4,4.14c2.27,2.76,4.55,5.51,6.66,8.4-2.63-2.43-5.09-5-7.57-7.58l-3.72-3.86c-1.25-1.27-2.46-2.58-3.69-3.88l1.47,0h0c-1.76,2-3.63,3.87-5.43,5.82l-2.7,2.92c-.46.48-.93.95-1.43,1.39-.24.23-.49.45-.74.66l-.38.33-.1.08,0,0s0,.08-.12,0l-.54-.43c-.15-.11-.09,0-.12,0Z" transform="translate(-76.47 -276.41)"/><path class="cls-1" d="M91.31,276.41a14.84,14.84,0,0,0-14.84,14.84c0,.13,0,.26,0,.38a14.81,14.81,0,0,0,14.64,14.45h.19a14.84,14.84,0,1,0,0-29.68Zm13.8,18.37a14.22,14.22,0,0,1-.56,1.93,13.86,13.86,0,0,1-13,8.86,13.52,13.52,0,1,1,13.84-14.21c0,.23,0,.47,0,.7a12.5,12.5,0,0,1-.07,1.38C105.27,293.9,105.2,294.34,105.11,294.78Zm-1.52-11.86" transform="translate(-76.47 -276.41)"/><path class="cls-2" d="M104.6,296.58a13.86,13.86,0,0,1-12.92,9h-.19a13.71,13.71,0,0,1-13.91-13.51c0-.12,0-.23,0-.35a13.93,13.93,0,0,1,27.8-.25,13.33,13.33,0,1,0-13.32,13.61A13.33,13.33,0,0,0,104.6,296.58Z" transform="translate(-76.47 -276.41)"/><rect class="cls-2" x="12.53" y="13.31" width="2.79" height="2.64"/><rect class="cls-1" x="8.74" y="13.31" width="2.79" height="2.64"/><rect class="cls-1" x="12.53" y="16.44" width="2.79" height="2.64"/><rect class="cls-2" x="8.74" y="16.44" width="2.79" height="2.64"/><path class="cls-3" d="M80.38,278.54" transform="translate(-76.47 -276.41)"/><polygon class="cls-1" points="13.68 5.44 26.92 22.19 13.35 5.7 13.68 5.44"/><polygon class="cls-1" points="12.99 5.95 26.24 22.7 12.66 6.21 12.99 5.95"/><path class="cls-1" d="M199.22,284.59v0s0,0,0,0l-.09-.09s0,0,0,0l.05-.07.12-.14.23-.27.5-.51,1-1h0l.14-.14.12.15c.81,1,1.65,2,2.42,3-.93-.89-1.79-1.83-2.69-2.75h.27l-1,1.05-.48.52-.26.25-.13.12-.07.06s0,0-.05,0l-.1-.08h0Z" transform="translate(-76.47 -276.41)"/><path class="cls-1" d="M201.67,281.1a2.66,2.66,0,0,0-2.67,2.66v.07a2.66,2.66,0,0,0,2.63,2.59h0a2.67,2.67,0,0,0,0-5.33Zm2.47,3.3a2.19,2.19,0,0,1-.1.34,2.48,2.48,0,0,1-2.34,1.59,2.43,2.43,0,1,1,2.49-2.55v.13a2.09,2.09,0,0,1,0,.25A2,2,0,0,1,204.14,284.4Zm-.27-2.13" transform="translate(-76.47 -276.41)"/><path class="cls-2" d="M204.05,284.72a2.49,2.49,0,0,1-2.32,1.61h0a2.46,2.46,0,0,1-2.5-2.42v-.06a2.5,2.5,0,0,1,5-.05,2.39,2.39,0,1,0-2.39,2.44A2.4,2.4,0,0,0,204.05,284.72Z" transform="translate(-76.47 -276.41)"/><rect class="cls-2" x="124.78" y="7.08" width="0.5" height="0.47"/><rect class="cls-1" x="124.1" y="7.08" width="0.5" height="0.47"/><rect class="cls-1" x="124.78" y="7.64" width="0.5" height="0.47"/><rect class="cls-2" x="124.1" y="7.64" width="0.5" height="0.47"/><path class="cls-3" d="M199.7,281.48" transform="translate(-76.47 -276.41)"/><polygon class="cls-1" points="124.99 5.67 127.36 8.67 124.93 5.71 124.99 5.67"/><polygon class="cls-1" points="124.86 5.76 127.24 8.76 124.8 5.8 124.86 5.76"/></svg>